<svg id="Layer_1" enable-background="new 0 0 511.973 511.973" height="512" viewBox="0 0 511.973 511.973" width="512" xmlns="http://www.w3.org/2000/svg"><g><path d="m280.909 155.758-126.802 48.25-17.875 17.879 153.875 153.875 17.877-17.88 48.25-126.8z" fill="#dadfe7"/><path d="m213.168 298.823 76.939 76.939 17.877-17.88 48.25-126.8-37.662-37.662z" fill="#c6d0da"/><path d="m109.651 248.466-58.11 58.109c-46.124 46.125-62.895 113.518-43.77 175.879l5.107 16.658 16.66 5.109c16.726 5.129 34.064 7.73 51.534 7.731h.009c46.968 0 91.124-18.291 124.335-51.503l58.11-58.109z" fill="#dadfe7"/><path d="m29.538 504.222c16.726 5.129 34.064 7.73 51.534 7.731h.009c46.968 0 91.124-18.291 124.335-51.503l58.11-58.109-76.938-76.938-173.71 173.71z" fill="#c6d0da"/><path d="m151.775 204.974h92.872v217.613h-92.872z" fill="#ff6e2e" transform="matrix(.707 -.707 .707 .707 -163.823 232.066)"/><path d="m511.973 147.38-98.241-49.121-49.12-98.239-110.05 110.05 6.331 53.304 87.724 87.724 53.305 6.332z" fill="#6d8187"/><path d="m413.732 98.259-108.977 108.977 43.862 43.862 53.305 6.332 110.051-110.05z" fill="#3d474e"/><path d="m277.553 126.565h185.747v30h-185.747z" fill="#3d474e" transform="matrix(.707 -.707 .707 .707 8.394 303.396)"/><path d="m190.244 297.846h92.873v108.807h-92.873z" fill="#ff4a4a" transform="matrix(.707 -.707 .707 .707 -179.756 270.529)"/><path d="m282.856 139.368h185.747v15h-185.747z" fill="#243037" transform="matrix(.707 -.707 .707 .707 6.197 308.698)"/></g></svg>